<svg xmlns="http://www.w3.org/2000/svg" viewBox="0 0 900 620" role="img" aria-label="Potted plant">
  <rect width="900" height="620" fill="#eef3ed"/>
  <circle cx="720" cy="120" r="78" fill="#f6d16f"/>
  <path d="M0 456 C130 386 242 418 360 378 C496 332 602 350 720 310 C802 282 864 298 900 278 V620 H0 Z" fill="#cfe2c8"/>
  <path d="M512 452 C484 348 508 270 598 190 C510 198 442 256 432 350 C418 264 366 204 284 174 C290 268 338 336 414 374 C340 342 260 352 192 424 C276 452 350 446 424 402 V486 Z" fill="#1d6a47"/>
  <path d="M430 452 C406 352 420 270 350 198 C444 206 504 286 498 378 C548 298 622 268 718 286 C670 370 600 416 510 420 V486 Z" fill="#2f8f5c"/>
  <path d="M342 456 H568 L536 572 H374 Z" fill="#b86f3d"/>
  <path d="M326 438 H584 C596 438 606 448 606 460 V472 H304 V460 C304 448 314 438 326 438 Z" fill="#d19159"/>
  <path d="M374 572 H536 L520 604 H390 Z" fill="#8f512e"/>
</svg>
