<svg xmlns="http://www.w3.org/2000/svg" viewBox="0 0 900 620" role="img" aria-label="Sunflower plant">
  <rect width="900" height="620" fill="#f5f3e6"/>
  <circle cx="720" cy="112" r="70" fill="#f2c95f"/>
  <path d="M0 474 C138 416 282 428 424 386 C560 344 680 352 900 300 V620 H0 Z" fill="#dfe8c7"/>
  <path d="M450 466 C448 356 452 286 456 174" stroke="#2d6b42" stroke-width="18" stroke-linecap="round" fill="none"/>
  <g transform="translate(456 156)">
    <g fill="#f3b936">
      <ellipse rx="28" ry="76" transform="rotate(0) translate(0 -82)"/>
      <ellipse rx="28" ry="76" transform="rotate(45) translate(0 -82)"/>
      <ellipse rx="28" ry="76" transform="rotate(90) translate(0 -82)"/>
      <ellipse rx="28" ry="76" transform="rotate(135) translate(0 -82)"/>
      <ellipse rx="28" ry="76" transform="rotate(180) translate(0 -82)"/>
      <ellipse rx="28" ry="76" transform="rotate(225) translate(0 -82)"/>
      <ellipse rx="28" ry="76" transform="rotate(270) translate(0 -82)"/>
      <ellipse rx="28" ry="76" transform="rotate(315) translate(0 -82)"/>
    </g>
    <circle r="58" fill="#6b4028"/>
    <circle r="34" fill="#8a5732"/>
  </g>
  <ellipse cx="358" cy="342" rx="92" ry="40" transform="rotate(-25 358 342)" fill="#357f4f"/>
  <ellipse cx="552" cy="374" rx="96" ry="40" transform="rotate(25 552 374)" fill="#41985d"/>
  <path d="M338 450 H570 L536 586 H370 Z" fill="#a9643e"/>
  <path d="M316 430 H592 V466 H316 Z" fill="#d29057"/>
</svg>
