<svg xmlns="http://www.w3.org/2000/svg" viewBox="0 0 900 620" role="img" aria-label="Tomato plant">
  <rect width="900" height="620" fill="#eef4ec"/>
  <path d="M0 468 C160 408 292 426 422 380 C556 334 696 350 900 292 V620 H0 Z" fill="#d7e7cf"/>
  <path d="M454 462 C452 340 454 262 458 150" stroke="#286b42" stroke-width="16" stroke-linecap="round" fill="none"/>
  <ellipse cx="360" cy="292" rx="94" ry="42" transform="rotate(-28 360 292)" fill="#2d8552"/>
  <ellipse cx="548" cy="286" rx="94" ry="42" transform="rotate(28 548 286)" fill="#3a9b61"/>
  <ellipse cx="382" cy="382" rx="100" ry="44" transform="rotate(-14 382 382)" fill="#39945c"/>
  <ellipse cx="548" cy="392" rx="100" ry="44" transform="rotate(16 548 392)" fill="#2e8552"/>
  <circle cx="514" cy="352" r="42" fill="#d83c32"/>
  <circle cx="398" cy="336" r="36" fill="#e15143"/>
  <circle cx="466" cy="422" r="38" fill="#c9342e"/>
  <path d="M338 450 H570 L536 586 H370 Z" fill="#a45f3a"/>
  <path d="M316 430 H592 V466 H316 Z" fill="#ce8854"/>
</svg>
